<svg width="196" height="14" viewBox="0 0 196 14" fill="none" xmlns="http://www.w3.org/2000/svg">
<path d="M6.175 3.462H1.805C1.425 3.44933 1.11467 3.31633 0.874 3.063C0.633333 2.797 0.519333 2.474 0.532 2.094V1.695C0.532 1.25167 0.671333 0.903332 0.95 0.649999C1.22867 0.396666 1.60233 0.288999 2.071 0.326999H14.117C14.5857 0.288999 14.9593 0.396666 15.238 0.649999C15.5293 0.903332 15.675 1.25167 15.675 1.695V2.094C15.675 2.53733 15.5293 2.88567 15.238 3.139C14.9593 3.39233 14.5857 3.5 14.117 3.462H10.032V11.727C10.0067 12.1323 9.861 12.449 9.595 12.677C9.329 12.905 8.98067 13.0127 8.55 13H7.657C7.163 13.0253 6.783 12.8987 6.517 12.62C6.251 12.3413 6.137 11.955 6.175 11.461V3.462ZM16.8411 11.442V5.685C16.8031 5.20367 16.9108 4.82367 17.1641 4.545C17.4175 4.25367 17.7721 4.11433 18.2281 4.127H18.7221C19.1781 4.11433 19.5328 4.25367 19.7861 4.545C20.0395 4.82367 20.1471 5.20367 20.1091 5.685V11.442C20.1471 11.9233 20.0395 12.3097 19.7861 12.601C19.5328 12.8797 19.1781 13.0127 18.7221 13H18.2281C17.7721 13.0127 17.4175 12.8797 17.1641 12.601C16.9108 12.3097 16.8031 11.9233 16.8411 11.442ZM18.1711 0.326999H18.7791C19.1718 0.326999 19.4885 0.434666 19.7291 0.649999C19.9825 0.865333 20.1091 1.15033 20.1091 1.505C20.1091 1.85967 19.9888 2.151 19.7481 2.379C19.5075 2.59433 19.1845 2.702 18.7791 2.702H18.1711C17.7658 2.702 17.4428 2.59433 17.2021 2.379C16.9615 2.151 16.8411 1.85967 16.8411 1.505C16.8411 1.15033 16.9615 0.865333 17.2021 0.649999C17.4555 0.434666 17.7785 0.326999 18.1711 0.326999ZM25.1315 5.571V5.932C25.2708 5.514 25.4292 5.191 25.6065 4.963C25.7838 4.72233 26.0308 4.51967 26.3475 4.355C26.9302 4.06367 27.7725 3.918 28.8745 3.918C31.1418 3.918 32.5352 4.602 33.0545 5.97C33.2445 5.23533 33.6372 4.70967 34.2325 4.393C34.8278 4.07633 35.7145 3.918 36.8925 3.918C38.6025 3.918 39.8312 4.24733 40.5785 4.906C41.3385 5.552 41.7185 6.616 41.7185 8.098V11.727C41.7058 12.1197 41.5665 12.4363 41.3005 12.677C41.0472 12.9177 40.7242 13.0253 40.3315 13H39.8375C39.3815 13.0127 39.0268 12.8797 38.7735 12.601C38.5202 12.3097 38.4125 11.9233 38.4505 11.442V8.345C38.4505 7.623 38.2858 7.13533 37.9565 6.882C37.6272 6.616 37.0002 6.483 36.0755 6.483C35.0622 6.483 34.3718 6.64133 34.0045 6.958C33.6498 7.27467 33.4725 7.88267 33.4725 8.782V11.727C33.4598 12.1197 33.3205 12.4363 33.0545 12.677C32.8012 12.9177 32.4782 13.0253 32.0855 13H31.5915C31.1355 13.0127 30.7808 12.8797 30.5275 12.601C30.2742 12.3097 30.1665 11.9233 30.2045 11.442V8.516C30.2045 7.65467 30.0525 7.09733 29.7485 6.844C29.4572 6.59067 28.8112 6.464 27.8105 6.464C26.8352 6.464 26.1575 6.616 25.7775 6.92C25.4102 7.21133 25.2265 7.74333 25.2265 8.516V11.727C25.2138 12.1197 25.0745 12.4363 24.8085 12.677C24.5552 12.9177 24.2322 13.0253 23.8395 13H23.3455C22.8895 13.0127 22.5348 12.8797 22.2815 12.601C22.0282 12.3097 21.9205 11.9233 21.9585 11.442V5.685C21.9205 5.21633 22.0282 4.84267 22.2815 4.564C22.5348 4.27267 22.8832 4.127 23.3265 4.127H23.7635C24.2068 4.127 24.5488 4.26 24.7895 4.526C25.0302 4.77933 25.1442 5.12767 25.1315 5.571ZM46.4215 9.2V9.485C46.4341 10.1943 46.6178 10.6567 46.9725 10.872C47.3398 11.0747 48.1441 11.176 49.3855 11.176C50.2215 11.176 50.7661 11.1443 51.0195 11.081C51.2855 11.0177 51.5578 10.8467 51.8365 10.568C52.1025 10.302 52.4825 10.169 52.9765 10.169H53.4895C53.8441 10.169 54.1418 10.2893 54.3825 10.53C54.6231 10.7707 54.7435 11.0683 54.7435 11.423C54.7435 11.8283 54.4965 12.1767 54.0025 12.468C53.5718 12.734 53.0335 12.9113 52.3875 13C51.7415 13.1013 50.7535 13.152 49.4235 13.152C47.9415 13.152 46.7318 13.076 45.7945 12.924C45.2878 12.8353 44.8318 12.639 44.4265 12.335C44.0211 12.031 43.7171 11.67 43.5145 11.252C43.2358 10.644 43.0965 9.808 43.0965 8.744C43.0965 7.61667 43.1978 6.75533 43.4005 6.16C43.6031 5.552 43.9578 5.07067 44.4645 4.716C44.8825 4.42467 45.4145 4.22833 46.0605 4.127C46.7191 4.02567 47.7515 3.975 49.1575 3.975C50.7028 3.975 51.8111 4.03833 52.4825 4.165C53.1538 4.29167 53.6858 4.53867 54.0785 4.906C54.7371 5.514 55.0665 6.502 55.0665 7.87V7.927C55.0411 8.345 54.8891 8.67433 54.6105 8.915C54.3318 9.143 53.9708 9.238 53.5275 9.2H46.4215ZM46.4215 7.452H51.8935C51.8808 6.83133 51.7035 6.426 51.3615 6.236C51.0195 6.046 50.2785 5.951 49.1385 5.951C47.8845 5.951 47.1118 6.09033 46.8205 6.369C46.5545 6.597 46.4215 6.91367 46.4215 7.319V7.452ZM60.7152 9.884V11.727C60.6899 12.1323 60.5442 12.449 60.2782 12.677C60.0122 12.905 59.6639 13.0127 59.2332 13H58.3592C57.8652 13.0253 57.4852 12.8987 57.2192 12.62C56.9532 12.3413 56.8392 11.955 56.8772 11.461V1.866C56.8392 1.35933 56.9596 0.966666 57.2382 0.688C57.5169 0.409333 57.9096 0.288999 58.4162 0.326999H66.5672C67.7959 0.326999 68.6446 0.358666 69.1132 0.421999C69.5946 0.472666 70.0379 0.599333 70.4432 0.802C71.0766 1.11867 71.5262 1.59367 71.7922 2.227C72.0582 2.84767 72.1912 3.75967 72.1912 4.963C72.1912 6.179 72.0709 7.12267 71.8302 7.794C71.6022 8.46533 71.2286 8.96567 70.7092 9.295C70.3419 9.523 69.8922 9.68133 69.3602 9.77C68.8282 9.846 68.0112 9.884 66.9092 9.884H60.7152ZM60.7152 6.806H66.3202C67.1056 6.806 67.6376 6.69833 67.9162 6.483C68.2076 6.26767 68.3532 5.86233 68.3532 5.267C68.3532 4.507 68.2202 4.00667 67.9542 3.766C67.7009 3.52533 67.1562 3.405 66.3202 3.405H60.7152V6.806ZM73.6593 11.442V5.685C73.6213 5.20367 73.729 4.82367 73.9823 4.545C74.2356 4.25367 74.5903 4.11433 75.0463 4.127H75.5403C75.9963 4.11433 76.351 4.25367 76.6043 4.545C76.8576 4.82367 76.9653 5.20367 76.9273 5.685V11.442C76.9653 11.9233 76.8576 12.3097 76.6043 12.601C76.351 12.8797 75.9963 13.0127 75.5403 13H75.0463C74.5903 13.0127 74.2356 12.8797 73.9823 12.601C73.729 12.3097 73.6213 11.9233 73.6593 11.442ZM74.9893 0.326999H75.5973C75.99 0.326999 76.3066 0.434666 76.5473 0.649999C76.8006 0.865333 76.9273 1.15033 76.9273 1.505C76.9273 1.85967 76.807 2.151 76.5663 2.379C76.3256 2.59433 76.0026 2.702 75.5973 2.702H74.9893C74.584 2.702 74.261 2.59433 74.0203 2.379C73.7796 2.151 73.6593 1.85967 73.6593 1.505C73.6593 1.15033 73.7796 0.865333 74.0203 0.649999C74.2736 0.434666 74.5966 0.326999 74.9893 0.326999ZM81.6457 9.2V9.485C81.6583 10.1943 81.842 10.6567 82.1967 10.872C82.564 11.0747 83.3683 11.176 84.6097 11.176C85.4457 11.176 85.9903 11.1443 86.2437 11.081C86.5097 11.0177 86.782 10.8467 87.0607 10.568C87.3267 10.302 87.7067 10.169 88.2007 10.169H88.7137C89.0683 10.169 89.366 10.2893 89.6067 10.53C89.8473 10.7707 89.9677 11.0683 89.9677 11.423C89.9677 11.8283 89.7207 12.1767 89.2267 12.468C88.796 12.734 88.2577 12.9113 87.6117 13C86.9657 13.1013 85.9777 13.152 84.6477 13.152C83.1657 13.152 81.956 13.076 81.0187 12.924C80.512 12.8353 80.056 12.639 79.6507 12.335C79.2453 12.031 78.9413 11.67 78.7387 11.252C78.46 10.644 78.3207 9.808 78.3207 8.744C78.3207 7.61667 78.422 6.75533 78.6247 6.16C78.8273 5.552 79.182 5.07067 79.6887 4.716C80.1067 4.42467 80.6387 4.22833 81.2847 4.127C81.9433 4.02567 82.9757 3.975 84.3817 3.975C85.927 3.975 87.0353 4.03833 87.7067 4.165C88.378 4.29167 88.91 4.53867 89.3027 4.906C89.9613 5.514 90.2907 6.502 90.2907 7.87V7.927C90.2653 8.345 90.1133 8.67433 89.8347 8.915C89.556 9.143 89.195 9.238 88.7517 9.2H81.6457ZM81.6457 7.452H87.1177C87.105 6.83133 86.9277 6.426 86.5857 6.236C86.2437 6.046 85.5027 5.951 84.3627 5.951C83.1087 5.951 82.336 6.09033 82.0447 6.369C81.7787 6.597 81.6457 6.91367 81.6457 7.319V7.452ZM102.133 7.528H101.487C101.12 7.528 100.848 7.49 100.67 7.414C100.506 7.32533 100.303 7.13533 100.062 6.844C99.8851 6.64133 99.6128 6.50833 99.2455 6.445C98.8908 6.369 98.2891 6.331 97.4405 6.331C96.3131 6.331 95.5658 6.47667 95.1985 6.768C94.8438 7.05933 94.6665 7.65467 94.6665 8.554C94.6665 9.58 94.9388 10.2387 95.4835 10.53C95.7748 10.6947 96.4778 10.777 97.5925 10.777C98.5805 10.777 99.2581 10.72 99.6255 10.606C99.8155 10.5427 100.043 10.3463 100.309 10.017C100.487 9.827 100.658 9.70033 100.822 9.637C101 9.561 101.247 9.52933 101.563 9.542H102.209C102.602 9.542 102.919 9.66233 103.159 9.903C103.413 10.131 103.539 10.4287 103.539 10.796C103.539 11.366 103.254 11.86 102.684 12.278C102.216 12.6073 101.608 12.8417 100.86 12.981C100.113 13.1203 99.0681 13.19 97.7255 13.19C96.3195 13.19 95.2301 13.1203 94.4575 12.981C93.6848 12.8417 93.0831 12.6073 92.6525 12.278C91.8038 11.6447 91.3795 10.4413 91.3795 8.668C91.3795 6.92 91.7151 5.71033 92.3865 5.039C92.7918 4.63367 93.3935 4.34867 94.1915 4.184C94.9895 4.00667 96.1105 3.918 97.5545 3.918C98.8718 3.918 99.9358 3.98767 100.746 4.127C102.102 4.317 102.976 4.84267 103.368 5.704C103.444 5.894 103.482 6.084 103.482 6.274C103.482 6.64133 103.356 6.94533 103.102 7.186C102.849 7.414 102.526 7.528 102.133 7.528ZM107.986 9.2V9.485C107.999 10.1943 108.182 10.6567 108.537 10.872C108.904 11.0747 109.709 11.176 110.95 11.176C111.786 11.176 112.331 11.1443 112.584 11.081C112.85 11.0177 113.122 10.8467 113.401 10.568C113.667 10.302 114.047 10.169 114.541 10.169H115.054C115.409 10.169 115.706 10.2893 115.947 10.53C116.188 10.7707 116.308 11.0683 116.308 11.423C116.308 11.8283 116.061 12.1767 115.567 12.468C115.136 12.734 114.598 12.9113 113.952 13C113.306 13.1013 112.318 13.152 110.988 13.152C109.506 13.152 108.296 13.076 107.359 12.924C106.852 12.8353 106.396 12.639 105.991 12.335C105.586 12.031 105.282 11.67 105.079 11.252C104.8 10.644 104.661 9.808 104.661 8.744C104.661 7.61667 104.762 6.75533 104.965 6.16C105.168 5.552 105.522 5.07067 106.029 4.716C106.447 4.42467 106.979 4.22833 107.625 4.127C108.284 4.02567 109.316 3.975 110.722 3.975C112.267 3.975 113.376 4.03833 114.047 4.165C114.718 4.29167 115.25 4.53867 115.643 4.906C116.302 5.514 116.631 6.502 116.631 7.87V7.927C116.606 8.345 116.454 8.67433 116.175 8.915C115.896 9.143 115.535 9.238 115.092 9.2H107.986ZM107.986 7.452H113.458C113.445 6.83133 113.268 6.426 112.926 6.236C112.584 6.046 111.843 5.951 110.703 5.951C109.449 5.951 108.676 6.09033 108.385 6.369C108.119 6.597 107.986 6.91367 107.986 7.319V7.452ZM126.08 9.884V11.727C126.054 12.1323 125.909 12.449 125.643 12.677C125.377 12.905 125.028 13.0127 124.598 13H123.724C123.23 13.0253 122.85 12.8987 122.584 12.62C122.318 12.3413 122.204 11.955 122.242 11.461V1.866C122.204 1.35933 122.324 0.966666 122.603 0.688C122.881 0.409333 123.274 0.288999 123.781 0.326999H131.932C133.16 0.326999 134.009 0.358666 134.478 0.421999C134.959 0.472666 135.402 0.599333 135.808 0.802C136.441 1.11867 136.891 1.59367 137.157 2.227C137.423 2.84767 137.556 3.75967 137.556 4.963C137.556 6.179 137.435 7.12267 137.195 7.794C136.967 8.46533 136.593 8.96567 136.074 9.295C135.706 9.523 135.257 9.68133 134.725 9.77C134.193 9.846 133.376 9.884 132.274 9.884H126.08ZM126.08 6.806H131.685C132.47 6.806 133.002 6.69833 133.281 6.483C133.572 6.26767 133.718 5.86233 133.718 5.267C133.718 4.507 133.585 4.00667 133.319 3.766C133.065 3.52533 132.521 3.405 131.685 3.405H126.08V6.806ZM147.066 11.632V11.423C146.863 12.145 146.49 12.6263 145.945 12.867C145.4 13.095 144.393 13.209 142.924 13.209C141.062 13.209 139.827 13.0253 139.219 12.658C138.624 12.278 138.326 11.5053 138.326 10.34C138.326 9.49133 138.478 8.84533 138.782 8.402C139.099 7.95867 139.605 7.67367 140.302 7.547C140.986 7.42033 142.139 7.357 143.76 7.357C144.862 7.357 145.628 7.433 146.059 7.585C146.502 7.737 146.806 8.03467 146.971 8.478V7.49C146.971 6.81867 146.825 6.40067 146.534 6.236C146.255 6.05867 145.559 5.97 144.444 5.97C143.583 5.97 143.082 5.97633 142.943 5.989C142.677 6.01433 142.126 6.21067 141.29 6.578C141.125 6.654 140.904 6.692 140.625 6.692H140.34C140.036 6.692 139.77 6.58433 139.542 6.369C139.327 6.15367 139.219 5.90033 139.219 5.609C139.219 5.153 139.485 4.78567 140.017 4.507C140.448 4.279 140.992 4.127 141.651 4.051C142.31 3.96233 143.367 3.918 144.824 3.918C146.635 3.918 147.864 4.032 148.51 4.26C149.08 4.43733 149.523 4.76033 149.84 5.229C150.169 5.685 150.334 6.22967 150.334 6.863V11.442C150.372 11.9233 150.264 12.3097 150.011 12.601C149.758 12.8797 149.403 13.0127 148.947 13H148.453C148.035 13.0127 147.693 12.8923 147.427 12.639C147.174 12.3857 147.053 12.05 147.066 11.632ZM144.121 9.181C143.108 9.181 142.424 9.25067 142.069 9.39C141.727 9.51667 141.556 9.77633 141.556 10.169C141.556 10.6883 141.892 11.005 142.563 11.119C142.791 11.157 143.399 11.176 144.387 11.176C145.413 11.176 146.084 11.1253 146.401 11.024C146.819 10.8973 147.028 10.6123 147.028 10.169C147.028 9.76367 146.844 9.49767 146.477 9.371C146.11 9.24433 145.324 9.181 144.121 9.181ZM152.25 11.442V1.885C152.212 1.40367 152.319 1.02367 152.573 0.744999C152.826 0.453666 153.181 0.314332 153.637 0.326999H154.131C154.587 0.314332 154.941 0.453666 155.195 0.744999C155.448 1.02367 155.556 1.40367 155.518 1.885V11.442C155.556 11.9233 155.448 12.3097 155.195 12.601C154.941 12.8797 154.587 13.0127 154.131 13H153.637C153.181 13.0127 152.826 12.8797 152.573 12.601C152.319 12.3097 152.212 11.9233 152.25 11.442ZM165.632 11.632V11.423C165.429 12.145 165.056 12.6263 164.511 12.867C163.966 13.095 162.959 13.209 161.49 13.209C159.628 13.209 158.393 13.0253 157.785 12.658C157.19 12.278 156.892 11.5053 156.892 10.34C156.892 9.49133 157.044 8.84533 157.348 8.402C157.665 7.95867 158.171 7.67367 158.868 7.547C159.552 7.42033 160.705 7.357 162.326 7.357C163.428 7.357 164.194 7.433 164.625 7.585C165.068 7.737 165.372 8.03467 165.537 8.478V7.49C165.537 6.81867 165.391 6.40067 165.1 6.236C164.821 6.05867 164.125 5.97 163.01 5.97C162.149 5.97 161.648 5.97633 161.509 5.989C161.243 6.01433 160.692 6.21067 159.856 6.578C159.691 6.654 159.47 6.692 159.191 6.692H158.906C158.602 6.692 158.336 6.58433 158.108 6.369C157.893 6.15367 157.785 5.90033 157.785 5.609C157.785 5.153 158.051 4.78567 158.583 4.507C159.014 4.279 159.558 4.127 160.217 4.051C160.876 3.96233 161.933 3.918 163.39 3.918C165.201 3.918 166.43 4.032 167.076 4.26C167.646 4.43733 168.089 4.76033 168.406 5.229C168.735 5.685 168.9 6.22967 168.9 6.863V11.442C168.938 11.9233 168.83 12.3097 168.577 12.601C168.324 12.8797 167.969 13.0127 167.513 13H167.019C166.601 13.0127 166.259 12.8923 165.993 12.639C165.74 12.3857 165.619 12.05 165.632 11.632ZM162.687 9.181C161.674 9.181 160.99 9.25067 160.635 9.39C160.293 9.51667 160.122 9.77633 160.122 10.169C160.122 10.6883 160.458 11.005 161.129 11.119C161.357 11.157 161.965 11.176 162.953 11.176C163.979 11.176 164.65 11.1253 164.967 11.024C165.385 10.8973 165.594 10.6123 165.594 10.169C165.594 9.76367 165.41 9.49767 165.043 9.371C164.676 9.24433 163.89 9.181 162.687 9.181ZM181.113 7.528H180.467C180.1 7.528 179.828 7.49 179.65 7.414C179.486 7.32533 179.283 7.13533 179.042 6.844C178.865 6.64133 178.593 6.50833 178.225 6.445C177.871 6.369 177.269 6.331 176.42 6.331C175.293 6.331 174.546 6.47667 174.178 6.768C173.824 7.05933 173.646 7.65467 173.646 8.554C173.646 9.58 173.919 10.2387 174.463 10.53C174.755 10.6947 175.458 10.777 176.572 10.777C177.56 10.777 178.238 10.72 178.605 10.606C178.795 10.5427 179.023 10.3463 179.289 10.017C179.467 9.827 179.638 9.70033 179.802 9.637C179.98 9.561 180.227 9.52933 180.543 9.542H181.189C181.582 9.542 181.899 9.66233 182.139 9.903C182.393 10.131 182.519 10.4287 182.519 10.796C182.519 11.366 182.234 11.86 181.664 12.278C181.196 12.6073 180.588 12.8417 179.84 12.981C179.093 13.1203 178.048 13.19 176.705 13.19C175.299 13.19 174.21 13.1203 173.437 12.981C172.665 12.8417 172.063 12.6073 171.632 12.278C170.784 11.6447 170.359 10.4413 170.359 8.668C170.359 6.92 170.695 5.71033 171.366 5.039C171.772 4.63367 172.373 4.34867 173.171 4.184C173.969 4.00667 175.09 3.918 176.534 3.918C177.852 3.918 178.916 3.98767 179.726 4.127C181.082 4.317 181.956 4.84267 182.348 5.704C182.424 5.894 182.462 6.084 182.462 6.274C182.462 6.64133 182.336 6.94533 182.082 7.186C181.829 7.414 181.506 7.528 181.113 7.528ZM186.966 9.2V9.485C186.978 10.1943 187.162 10.6567 187.517 10.872C187.884 11.0747 188.688 11.176 189.93 11.176C190.766 11.176 191.31 11.1443 191.564 11.081C191.83 11.0177 192.102 10.8467 192.381 10.568C192.647 10.302 193.027 10.169 193.521 10.169H194.034C194.388 10.169 194.686 10.2893 194.927 10.53C195.167 10.7707 195.288 11.0683 195.288 11.423C195.288 11.8283 195.041 12.1767 194.547 12.468C194.116 12.734 193.578 12.9113 192.932 13C192.286 13.1013 191.298 13.152 189.968 13.152C188.486 13.152 187.276 13.076 186.339 12.924C185.832 12.8353 185.376 12.639 184.971 12.335C184.565 12.031 184.261 11.67 184.059 11.252C183.78 10.644 183.641 9.808 183.641 8.744C183.641 7.61667 183.742 6.75533 183.945 6.16C184.147 5.552 184.502 5.07067 185.009 4.716C185.427 4.42467 185.959 4.22833 186.605 4.127C187.263 4.02567 188.296 3.975 189.702 3.975C191.247 3.975 192.355 4.03833 193.027 4.165C193.698 4.29167 194.23 4.53867 194.623 4.906C195.281 5.514 195.611 6.502 195.611 7.87V7.927C195.585 8.345 195.433 8.67433 195.155 8.915C194.876 9.143 194.515 9.238 194.072 9.2H186.966ZM186.966 7.452H192.438C192.425 6.83133 192.248 6.426 191.906 6.236C191.564 6.046 190.823 5.951 189.683 5.951C188.429 5.951 187.656 6.09033 187.365 6.369C187.099 6.597 186.966 6.91367 186.966 7.319V7.452Z" fill="black"/>
</svg>
